<svg xmlns="http://www.w3.org/2000/svg" viewBox="0 0 900 560" role="img" aria-label="BIE Dashboard — ecosistema de agentes IA en operación">

  <!-- Browser shell -->
  <rect width="900" height="560" rx="10" fill="#0f172a"/>
  <rect width="900" height="38" rx="10" fill="#1e293b"/>
  <rect y="28" width="900" height="10" fill="#1e293b"/>

  <!-- Browser controls -->
  <circle cx="20" cy="19" r="5.5" fill="#ef4444" opacity="0.75"/>
  <circle cx="36" cy="19" r="5.5" fill="#f59e0b" opacity="0.75"/>
  <circle cx="52" cy="19" r="5.5" fill="#22c55e" opacity="0.75"/>

  <!-- URL bar -->
  <rect x="80" y="9" width="440" height="20" rx="10" fill="#334155"/>
  <text x="300" y="23" font-family="ui-monospace,monospace" font-size="9" fill="#64748b" text-anchor="middle">app.bie.ec / dashboard</text>

  <!-- Sidebar -->
  <rect x="0" y="38" width="168" height="522" fill="#0d1525"/>

  <!-- BIE logo in sidebar -->
  <text x="16" y="68" font-family="Arial Black,Arial,sans-serif" font-weight="900" font-size="20" fill="white" letter-spacing="-0.5">BIE</text>
  <rect x="72" y="52" width="7" height="7" fill="#c4972a" opacity="0.9"/>

  <!-- Sidebar nav -->
  <rect x="10" y="82" width="148" height="30" rx="5" fill="#1b3a5c"/>
  <text x="36" y="101" font-family="Arial,sans-serif" font-size="10" fill="white" font-weight="600">Dashboard</text>
  <circle cx="22" cy="97" r="4" fill="#2e75b6" opacity="0.7"/>

  <text x="36" y="132" font-family="Arial,sans-serif" font-size="10" fill="#475569">Agentes</text>
  <circle cx="22" cy="128" r="4" fill="#334155"/>

  <text x="36" y="158" font-family="Arial,sans-serif" font-size="10" fill="#475569">Leads CRM</text>
  <circle cx="22" cy="154" r="4" fill="#334155"/>

  <text x="36" y="184" font-family="Arial,sans-serif" font-size="10" fill="#475569">Conversaciones</text>
  <circle cx="22" cy="180" r="4" fill="#334155"/>

  <text x="36" y="210" font-family="Arial,sans-serif" font-size="10" fill="#475569">Automatizaciones</text>
  <circle cx="22" cy="206" r="4" fill="#334155"/>

  <text x="36" y="236" font-family="Arial,sans-serif" font-size="10" fill="#475569">Reportes</text>
  <circle cx="22" cy="232" r="4" fill="#334155"/>

  <line x1="10" y1="258" x2="158" y2="258" stroke="#1e293b" stroke-width="1"/>

  <text x="16" y="280" font-family="Arial,sans-serif" font-size="9" fill="#334155" letter-spacing="0.08em">INTEGRACIONES</text>
  <text x="36" y="300" font-family="Arial,sans-serif" font-size="10" fill="#475569">WhatsApp</text>
  <circle cx="22" cy="296" r="3" fill="#25D366" opacity="0.8"/>
  <text x="36" y="320" font-family="Arial,sans-serif" font-size="10" fill="#475569">CRM</text>
  <circle cx="22" cy="316" r="3" fill="#2e75b6" opacity="0.8"/>
  <text x="36" y="340" font-family="Arial,sans-serif" font-size="10" fill="#475569">Email</text>
  <circle cx="22" cy="336" r="3" fill="#c4972a" opacity="0.8"/>

  <!-- Main area header -->
  <text x="188" y="68" font-family="Arial,sans-serif" font-size="14" fill="white" font-weight="700">Resumen del sistema</text>
  <text x="188" y="84" font-family="Arial,sans-serif" font-size="9" fill="#475569">Actualizado hace 2 minutos · Todos los agentes operativos</text>
  <circle cx="730" cy="60" r="5" fill="#22c55e"/>
  <text x="742" y="64" font-family="Arial,sans-serif" font-size="9" fill="#22c55e">En vivo</text>

  <!-- KPI cards row -->
  <!-- Card 1: Leads hoy -->
  <rect x="188" y="98" width="162" height="80" rx="6" fill="#1e293b"/>
  <text x="200" y="118" font-family="Arial,sans-serif" font-size="8.5" fill="#64748b" letter-spacing="0.05em">LEADS CALIFICADOS HOY</text>
  <text x="200" y="153" font-family="Arial Black,Arial,sans-serif" font-weight="900" font-size="32" fill="#2e75b6">34</text>
  <text x="246" y="153" font-family="Arial,sans-serif" font-size="9" fill="#22c55e">↑ 18%</text>
  <text x="200" y="170" font-family="Arial,sans-serif" font-size="8" fill="#475569">vs. ayer: 29 leads</text>

  <!-- Card 2: Response time -->
  <rect x="360" y="98" width="162" height="80" rx="6" fill="#1e293b"/>
  <text x="372" y="118" font-family="Arial,sans-serif" font-size="8.5" fill="#64748b" letter-spacing="0.05em">TIEMPO RESP. PROMEDIO</text>
  <text x="372" y="153" font-family="Arial Black,Arial,sans-serif" font-weight="900" font-size="32" fill="#2e75b6">28s</text>
  <text x="418" y="153" font-family="Arial,sans-serif" font-size="9" fill="#22c55e">↓ 94%</text>
  <text x="372" y="170" font-family="Arial,sans-serif" font-size="8" fill="#475569">antes: 4h manual</text>

  <!-- Card 3: Agentes activos -->
  <rect x="532" y="98" width="162" height="80" rx="6" fill="#1e293b"/>
  <text x="544" y="118" font-family="Arial,sans-serif" font-size="8.5" fill="#64748b" letter-spacing="0.05em">AGENTES EN OPERACIÓN</text>
  <text x="544" y="153" font-family="Arial Black,Arial,sans-serif" font-weight="900" font-size="32" fill="#2e75b6">92</text>
  <text x="590" y="153" font-family="Arial,sans-serif" font-size="9" fill="#c4972a">24/7</text>
  <text x="544" y="170" font-family="Arial,sans-serif" font-size="8" fill="#475569">0 errores en las últimas 24h</text>

  <!-- Card 4: Conv tasa -->
  <rect x="704" y="98" width="162" height="80" rx="6" fill="#1e293b"/>
  <text x="716" y="118" font-family="Arial,sans-serif" font-size="8.5" fill="#64748b" letter-spacing="0.05em">TASA DE CONVERSIÓN</text>
  <text x="716" y="153" font-family="Arial Black,Arial,sans-serif" font-weight="900" font-size="32" fill="#c4972a">68%</text>
  <text x="762" y="153" font-family="Arial,sans-serif" font-size="9" fill="#22c55e">↑ 23pp</text>
  <text x="716" y="170" font-family="Arial,sans-serif" font-size="8" fill="#475569">lead → cita agendada</text>

  <!-- Line chart: Leads últimos 30 días -->
  <rect x="188" y="192" width="390" height="180" rx="6" fill="#1e293b"/>
  <text x="200" y="212" font-family="Arial,sans-serif" font-size="9" fill="#94a3b8" font-weight="600">Leads calificados — últimos 30 días</text>

  <!-- Grid lines -->
  <line x1="200" y1="230" x2="565" y2="230" stroke="#334155" stroke-width="0.5"/>
  <line x1="200" y1="255" x2="565" y2="255" stroke="#334155" stroke-width="0.5"/>
  <line x1="200" y1="280" x2="565" y2="280" stroke="#334155" stroke-width="0.5"/>
  <line x1="200" y1="305" x2="565" y2="305" stroke="#334155" stroke-width="0.5"/>
  <line x1="200" y1="352" x2="565" y2="352" stroke="#334155" stroke-width="0.5"/>

  <!-- Y-axis labels -->
  <text x="188" y="233" font-family="Arial,sans-serif" font-size="7" fill="#475569" text-anchor="end">40</text>
  <text x="188" y="258" font-family="Arial,sans-serif" font-size="7" fill="#475569" text-anchor="end">30</text>
  <text x="188" y="283" font-family="Arial,sans-serif" font-size="7" fill="#475569" text-anchor="end">20</text>
  <text x="188" y="308" font-family="Arial,sans-serif" font-size="7" fill="#475569" text-anchor="end">10</text>

  <!-- Area fill -->
  <defs>
    <linearGradient id="chartGrad" x1="0" y1="0" x2="0" y2="1">
      <stop offset="0%" stop-color="#2e75b6" stop-opacity="0.3"/>
      <stop offset="100%" stop-color="#2e75b6" stop-opacity="0.02"/>
    </linearGradient>
  </defs>
  <polygon points="200,340 224,330 248,320 272,315 296,305 320,295 344,278 368,265 392,255 416,242 440,235 464,228 488,224 512,220 536,215 560,210 560,352 200,352" fill="url(#chartGrad)"/>
  <!-- Line -->
  <polyline points="200,340 224,330 248,320 272,315 296,305 320,295 344,278 368,265 392,255 416,242 440,235 464,228 488,224 512,220 536,215 560,210" fill="none" stroke="#2e75b6" stroke-width="2" stroke-linejoin="round"/>
  <!-- Dots -->
  <circle cx="560" cy="210" r="4" fill="#2e75b6" stroke="#1e293b" stroke-width="2"/>
  <circle cx="440" cy="235" r="3" fill="#2e75b6" stroke="#1e293b" stroke-width="1.5"/>
  <circle cx="320" cy="295" r="3" fill="#2e75b6" stroke="#1e293b" stroke-width="1.5"/>

  <!-- X-axis labels -->
  <text x="200" y="365" font-family="Arial,sans-serif" font-size="7" fill="#475569">1 May</text>
  <text x="356" y="365" font-family="Arial,sans-serif" font-size="7" fill="#475569">15 May</text>
  <text x="536" y="365" font-family="Arial,sans-serif" font-size="7" fill="#475569">30 May</text>

  <!-- Tooltip on last point -->
  <rect x="528" y="195" width="70" height="26" rx="4" fill="#2e75b6"/>
  <text x="563" y="210" font-family="Arial,sans-serif" font-size="8.5" fill="white" text-anchor="middle" font-weight="700">34 leads</text>
  <text x="563" y="219" font-family="Arial,sans-serif" font-size="7" fill="rgba(255,255,255,0.7)" text-anchor="middle">hoy · 28 May</text>
  <polygon points="558,221 563,228 568,221" fill="#2e75b6"/>

  <!-- Agent status panel -->
  <rect x="590" y="192" width="276" height="180" rx="6" fill="#1e293b"/>
  <text x="602" y="212" font-family="Arial,sans-serif" font-size="9" fill="#94a3b8" font-weight="600">Estado de agentes en tiempo real</text>

  <!-- Agent rows -->
  <rect x="602" y="220" width="252" height="26" rx="4" fill="#0f1629"/>
  <circle cx="616" cy="233" r="4" fill="#22c55e"/>
  <text x="628" y="237" font-family="Arial,sans-serif" font-size="9" fill="#e2e8f0">Agente Ventas</text>
  <text x="750" y="237" font-family="Arial,sans-serif" font-size="8" fill="#64748b">47 conversaciones</text>
  <text x="835" y="237" font-family="Arial,sans-serif" font-size="8" fill="#22c55e">●</text>

  <rect x="602" y="252" width="252" height="26" rx="4" fill="#0f1629" opacity="0.5"/>
  <circle cx="616" cy="265" r="4" fill="#22c55e"/>
  <text x="628" y="269" font-family="Arial,sans-serif" font-size="9" fill="#e2e8f0">Agente Soporte 24/7</text>
  <text x="750" y="269" font-family="Arial,sans-serif" font-size="8" fill="#64748b">23 tickets</text>
  <text x="835" y="269" font-family="Arial,sans-serif" font-size="8" fill="#22c55e">●</text>

  <rect x="602" y="284" width="252" height="26" rx="4" fill="#0f1629" opacity="0.5"/>
  <circle cx="616" cy="297" r="4" fill="#22c55e"/>
  <text x="628" y="301" font-family="Arial,sans-serif" font-size="9" fill="#e2e8f0">Agente Datos / CRM</text>
  <text x="750" y="301" font-family="Arial,sans-serif" font-size="8" fill="#64748b">12 sincronizaciones</text>
  <text x="835" y="301" font-family="Arial,sans-serif" font-size="8" fill="#22c55e">●</text>

  <rect x="602" y="316" width="252" height="26" rx="4" fill="#0f1629" opacity="0.5"/>
  <circle cx="616" cy="329" r="4" fill="#c4972a"/>
  <text x="628" y="333" font-family="Arial,sans-serif" font-size="9" fill="#e2e8f0">Agente Email / Marketing</text>
  <text x="750" y="333" font-family="Arial,sans-serif" font-size="8" fill="#64748b">standby</text>
  <text x="835" y="333" font-family="Arial,sans-serif" font-size="8" fill="#c4972a">●</text>

  <rect x="602" y="348" width="252" height="26" rx="4" fill="#0f1629" opacity="0.5"/>
  <circle cx="616" cy="361" r="4" fill="#22c55e"/>
  <text x="628" y="365" font-family="Arial,sans-serif" font-size="9" fill="#e2e8f0">Agente Calificador Leads</text>
  <text x="750" y="365" font-family="Arial,sans-serif" font-size="8" fill="#64748b">activo · web + WA</text>
  <text x="835" y="365" font-family="Arial,sans-serif" font-size="8" fill="#22c55e">●</text>

  <!-- Bar chart: canales -->
  <rect x="188" y="385" width="678" height="140" rx="6" fill="#1e293b"/>
  <text x="200" y="404" font-family="Arial,sans-serif" font-size="9" fill="#94a3b8" font-weight="600">Conversaciones por canal — últimos 7 días</text>

  <!-- Bars -->
  <rect x="220" y="430" width="60" height="70" rx="3" fill="#2e75b6" opacity="0.9"/>
  <text x="250" y="424" font-family="Arial,sans-serif" font-size="8" fill="#64748b" text-anchor="middle">WhatsApp</text>
  <text x="250" y="515" font-family="Arial,sans-serif" font-size="9" fill="#94a3b8" text-anchor="middle" font-weight="600">312</text>

  <rect x="330" y="450" width="60" height="50" rx="3" fill="#2e75b6" opacity="0.7"/>
  <text x="360" y="444" font-family="Arial,sans-serif" font-size="8" fill="#64748b" text-anchor="middle">Web chat</text>
  <text x="360" y="515" font-family="Arial,sans-serif" font-size="9" fill="#94a3b8" text-anchor="middle" font-weight="600">201</text>

  <rect x="440" y="465" width="60" height="35" rx="3" fill="#c4972a" opacity="0.8"/>
  <text x="470" y="459" font-family="Arial,sans-serif" font-size="8" fill="#64748b" text-anchor="middle">Email</text>
  <text x="470" y="515" font-family="Arial,sans-serif" font-size="9" fill="#94a3b8" text-anchor="middle" font-weight="600">98</text>

  <rect x="550" y="475" width="60" height="25" rx="3" fill="#2e75b6" opacity="0.5"/>
  <text x="580" y="469" font-family="Arial,sans-serif" font-size="8" fill="#64748b" text-anchor="middle">Instagram</text>
  <text x="580" y="515" font-family="Arial,sans-serif" font-size="9" fill="#94a3b8" text-anchor="middle" font-weight="600">54</text>

  <rect x="660" y="480" width="60" height="20" rx="3" fill="#2e75b6" opacity="0.4"/>
  <text x="690" y="474" font-family="Arial,sans-serif" font-size="8" fill="#64748b" text-anchor="middle">Llamadas</text>
  <text x="690" y="515" font-family="Arial,sans-serif" font-size="9" fill="#94a3b8" text-anchor="middle" font-weight="600">31</text>

  <!-- Horizontal baseline -->
  <line x1="200" y1="500" x2="860" y2="500" stroke="#334155" stroke-width="0.5"/>

  <!-- Gold accent glow top-right -->
  <radialGradient id="cornerGlow" cx="100%" cy="0%" r="40%">
    <stop offset="0%" stop-color="#c4972a" stop-opacity="0.08"/>
    <stop offset="100%" stop-color="#c4972a" stop-opacity="0"/>
  </radialGradient>
  <rect width="900" height="560" rx="10" fill="url(#cornerGlow)" pointer-events="none"/>
</svg>
